<svg width="208" height="230" viewBox="0 0 208 230" fill="none" xmlns="http://www.w3.org/2000/svg">
<g filter="url(#filter0_dddddd_12_2045)">
<path d="M127.248 24.5809C127.2 24.5485 127.15 24.5185 127.098 24.4912L123.692 22.657L104.802 32.6581C104.301 32.9239 103.7 32.9239 103.198 32.6581L84.3082 22.657L80.9018 24.4912C80.074 24.9307 79.759 25.958 80.1984 26.7859C80.2257 26.8373 80.2557 26.8874 80.2881 26.9358L104 39.4894L127.712 26.9358C128.234 26.1574 128.027 25.1031 127.248 24.5809Z" fill="url(#paint0_linear_12_2045)"/>
<path d="M127.793 35.4709C127.634 35.1767 127.392 34.9353 127.098 34.7766L123.692 32.9424L104.802 42.9435C104.301 43.2093 103.7 43.2093 103.198 42.9435L84.3081 32.9424L80.9018 34.7766C80.0686 35.2263 79.7578 36.2663 80.2075 37.0995C80.3663 37.3937 80.6077 37.635 80.9018 37.7937L103.188 49.7938C103.695 50.0669 104.305 50.0669 104.813 49.7938L127.098 37.7937C127.931 37.344 128.242 36.3041 127.793 35.4709Z" fill="url(#paint1_linear_12_2045)"/>
<path d="M127.248 14.2965C127.2 14.264 127.15 14.2341 127.098 14.2068L104.813 2.20673C104.305 1.93361 103.695 1.93361 103.188 2.20673L80.9018 14.2068C80.074 14.6462 79.759 15.6736 80.1984 16.5015C80.2257 16.5529 80.2557 16.6029 80.2881 16.6513L104 29.205L127.712 16.6513C128.234 15.873 128.027 14.8187 127.248 14.2965Z" fill="url(#paint2_linear_12_2045)"/>
</g>
<defs>
<filter id="filter0_dddddd_12_2045" x="0" y="0.705596" width="208" height="229.293" filterUnits="userSpaceOnUse" color-interpolation-filters="sRGB">
<feFlood flood-opacity="0" result="BackgroundImageFix"/>
<feColorMatrix in="SourceAlpha" type="matrix" values="0 0 0 0 0 0 0 0 0 0 0 0 0 0 0 0 0 0 127 0" result="hardAlpha"/>
<feOffset dy="1.85185"/>
<feGaussianBlur stdDeviation="1.57407"/>
<feColorMatrix type="matrix" values="0 0 0 0 0 0 0 0 0 0 0 0 0 0 0 0 0 0 0.0601852 0"/>
<feBlend mode="normal" in2="BackgroundImageFix" result="effect1_dropShadow_12_2045"/>
<feColorMatrix in="SourceAlpha" type="matrix" values="0 0 0 0 0 0 0 0 0 0 0 0 0 0 0 0 0 0 127 0" result="hardAlpha"/>
<feOffset dy="8.14815"/>
<feGaussianBlur stdDeviation="3.25926"/>
<feColorMatrix type="matrix" values="0 0 0 0 0 0 0 0 0 0 0 0 0 0 0 0 0 0 0.0981481 0"/>
<feBlend mode="normal" in2="effect1_dropShadow_12_2045" result="effect2_dropShadow_12_2045"/>
<feColorMatrix in="SourceAlpha" type="matrix" values="0 0 0 0 0 0 0 0 0 0 0 0 0 0 0 0 0 0 127 0" result="hardAlpha"/>
<feOffset dy="20"/>
<feGaussianBlur stdDeviation="6.5"/>
<feColorMatrix type="matrix" values="0 0 0 0 0 0 0 0 0 0 0 0 0 0 0 0 0 0 0.125 0"/>
<feBlend mode="normal" in2="effect2_dropShadow_12_2045" result="effect3_dropShadow_12_2045"/>
<feColorMatrix in="SourceAlpha" type="matrix" values="0 0 0 0 0 0 0 0 0 0 0 0 0 0 0 0 0 0 127 0" result="hardAlpha"/>
<feOffset dy="38.5185"/>
<feGaussianBlur stdDeviation="12.7407"/>
<feColorMatrix type="matrix" values="0 0 0 0 0 0 0 0 0 0 0 0 0 0 0 0 0 0 0.151852 0"/>
<feBlend mode="normal" in2="effect3_dropShadow_12_2045" result="effect4_dropShadow_12_2045"/>
<feColorMatrix in="SourceAlpha" type="matrix" values="0 0 0 0 0 0 0 0 0 0 0 0 0 0 0 0 0 0 127 0" result="hardAlpha"/>
<feOffset dy="64.8148"/>
<feGaussianBlur stdDeviation="23.4259"/>
<feColorMatrix type="matrix" values="0 0 0 0 0 0 0 0 0 0 0 0 0 0 0 0 0 0 0.189815 0"/>
<feBlend mode="normal" in2="effect4_dropShadow_12_2045" result="effect5_dropShadow_12_2045"/>
<feColorMatrix in="SourceAlpha" type="matrix" values="0 0 0 0 0 0 0 0 0 0 0 0 0 0 0 0 0 0 127 0" result="hardAlpha"/>
<feOffset dy="100"/>
<feGaussianBlur stdDeviation="40"/>
<feColorMatrix type="matrix" values="0 0 0 0 0 0 0 0 0 0 0 0 0 0 0 0 0 0 0.25 0"/>
<feBlend mode="normal" in2="effect5_dropShadow_12_2045" result="effect6_dropShadow_12_2045"/>
<feBlend mode="normal" in="SourceGraphic" in2="effect6_dropShadow_12_2045" result="shape"/>
</filter>
<linearGradient id="paint0_linear_12_2045" x1="104" y1="2.00189" x2="104" y2="49.9986" gradientUnits="userSpaceOnUse">
<stop stop-color="#6D6D8A"/>
<stop offset="1" stop-color="#37374A"/>
</linearGradient>
<linearGradient id="paint1_linear_12_2045" x1="104" y1="2.00189" x2="104" y2="49.9986" gradientUnits="userSpaceOnUse">
<stop stop-color="#6D6D8A"/>
<stop offset="1" stop-color="#37374A"/>
</linearGradient>
<linearGradient id="paint2_linear_12_2045" x1="104" y1="2.00189" x2="104" y2="49.9986" gradientUnits="userSpaceOnUse">
<stop stop-color="#6D6D8A"/>
<stop offset="1" stop-color="#37374A"/>
</linearGradient>
</defs>
</svg>
