<svg width="206" height="230" viewBox="0 0 206 230" fill="none" xmlns="http://www.w3.org/2000/svg">
<g filter="url(#filter0_dddddd_12_2028)">
<path d="M125.162 31.26L122.248 28.9409C121.363 28.2363 120.93 27.1293 120.93 25.998V25.998V25.998C120.93 24.8673 121.364 23.7595 122.249 23.0554L125.166 20.7341C125.971 20.0861 126.191 18.936 125.678 17.9781L121.172 10.04C120.69 9.14403 119.635 8.684 118.565 9.086L115.124 10.4924C114.085 10.917 112.896 10.7407 111.929 10.1708V10.1708C110.981 9.6122 110.288 8.70289 110.134 7.61357L109.603 3.84003C109.475 2.792 108.579 2 107.52 2H98.4833C97.4244 2 96.5306 2.792 96.4048 3.824L95.8714 7.61471C95.7178 8.70596 95.0519 9.60348 94.1032 10.1642V10.1642C93.1405 10.7332 91.9306 10.9226 90.8955 10.4995L87.4328 9.08403C86.4721 8.70603 85.3228 9.12997 84.8454 10.022L80.333 17.97C79.8006 18.8861 80.0206 20.076 80.8438 20.7401L83.7585 23.0604C84.6428 23.7644 85.0754 24.8698 85.0754 26.0001V26.0001V26.0001C85.0754 27.1316 84.6422 28.2381 83.7568 28.9427L80.8398 31.2641C80.0343 31.914 79.8163 33.0641 80.329 34.02L84.8357 41.958C85.317 42.852 86.3621 43.316 87.4426 42.912L90.8834 41.5058C91.9227 41.081 93.1105 41.2562 94.0777 41.8264V41.8264C95.0244 42.3846 95.7177 43.2941 95.8711 44.3823L96.4029 48.156C96.5305 49.208 97.4244 50 98.4853 50H107.522C108.581 50 109.477 49.208 109.603 48.176L110.136 44.3857C110.29 43.2952 110.954 42.3984 111.902 41.838V41.838C112.866 41.268 114.078 41.0778 115.114 41.5015L118.575 42.916C118.822 43.0139 119.079 43.064 119.345 43.064C120.107 43.064 120.808 42.64 121.162 41.98L125.688 34C126.191 33.064 125.971 31.914 125.162 31.26ZM103.002 34C98.668 34 95.1436 30.412 95.1436 26C95.1436 21.588 98.668 18 103.002 18C107.335 18 110.86 21.588 110.86 26C110.86 30.412 107.335 34 103.002 34Z" fill="url(#paint0_linear_12_2028)"/>
</g>
<defs>
<filter id="filter0_dddddd_12_2028" x="0.043457" y="0.703704" width="205.913" height="229.296" filterUnits="userSpaceOnUse" color-interpolation-filters="sRGB">
<feFlood flood-opacity="0" result="BackgroundImageFix"/>
<feColorMatrix in="SourceAlpha" type="matrix" values="0 0 0 0 0 0 0 0 0 0 0 0 0 0 0 0 0 0 127 0" result="hardAlpha"/>
<feOffset dy="1.85185"/>
<feGaussianBlur stdDeviation="1.57407"/>
<feColorMatrix type="matrix" values="0 0 0 0 0 0 0 0 0 0 0 0 0 0 0 0 0 0 0.0601852 0"/>
<feBlend mode="normal" in2="BackgroundImageFix" result="effect1_dropShadow_12_2028"/>
<feColorMatrix in="SourceAlpha" type="matrix" values="0 0 0 0 0 0 0 0 0 0 0 0 0 0 0 0 0 0 127 0" result="hardAlpha"/>
<feOffset dy="8.14815"/>
<feGaussianBlur stdDeviation="3.25926"/>
<feColorMatrix type="matrix" values="0 0 0 0 0 0 0 0 0 0 0 0 0 0 0 0 0 0 0.0981481 0"/>
<feBlend mode="normal" in2="effect1_dropShadow_12_2028" result="effect2_dropShadow_12_2028"/>
<feColorMatrix in="SourceAlpha" type="matrix" values="0 0 0 0 0 0 0 0 0 0 0 0 0 0 0 0 0 0 127 0" result="hardAlpha"/>
<feOffset dy="20"/>
<feGaussianBlur stdDeviation="6.5"/>
<feColorMatrix type="matrix" values="0 0 0 0 0 0 0 0 0 0 0 0 0 0 0 0 0 0 0.125 0"/>
<feBlend mode="normal" in2="effect2_dropShadow_12_2028" result="effect3_dropShadow_12_2028"/>
<feColorMatrix in="SourceAlpha" type="matrix" values="0 0 0 0 0 0 0 0 0 0 0 0 0 0 0 0 0 0 127 0" result="hardAlpha"/>
<feOffset dy="38.5185"/>
<feGaussianBlur stdDeviation="12.7407"/>
<feColorMatrix type="matrix" values="0 0 0 0 0 0 0 0 0 0 0 0 0 0 0 0 0 0 0.151852 0"/>
<feBlend mode="normal" in2="effect3_dropShadow_12_2028" result="effect4_dropShadow_12_2028"/>
<feColorMatrix in="SourceAlpha" type="matrix" values="0 0 0 0 0 0 0 0 0 0 0 0 0 0 0 0 0 0 127 0" result="hardAlpha"/>
<feOffset dy="64.8148"/>
<feGaussianBlur stdDeviation="23.4259"/>
<feColorMatrix type="matrix" values="0 0 0 0 0 0 0 0 0 0 0 0 0 0 0 0 0 0 0.189815 0"/>
<feBlend mode="normal" in2="effect4_dropShadow_12_2028" result="effect5_dropShadow_12_2028"/>
<feColorMatrix in="SourceAlpha" type="matrix" values="0 0 0 0 0 0 0 0 0 0 0 0 0 0 0 0 0 0 127 0" result="hardAlpha"/>
<feOffset dy="100"/>
<feGaussianBlur stdDeviation="40"/>
<feColorMatrix type="matrix" values="0 0 0 0 0 0 0 0 0 0 0 0 0 0 0 0 0 0 0.25 0"/>
<feBlend mode="normal" in2="effect5_dropShadow_12_2028" result="effect6_dropShadow_12_2028"/>
<feBlend mode="normal" in="SourceGraphic" in2="effect6_dropShadow_12_2028" result="shape"/>
</filter>
<linearGradient id="paint0_linear_12_2028" x1="103" y1="2" x2="103" y2="50" gradientUnits="userSpaceOnUse">
<stop stop-color="#6D6D8A"/>
<stop offset="1" stop-color="#37374A"/>
</linearGradient>
</defs>
</svg>
