<svg width="250" height="272" viewBox="0 0 250 272" fill="none" xmlns="http://www.w3.org/2000/svg">
<g filter="url(#filter0_dddddd_12_1735)">
<circle cx="125" cy="47" r="45" fill="url(#paint0_linear_12_1735)"/>
</g>
<g filter="url(#filter1_i_12_1735)">
<path d="M136.265 35.7355C134.018 33.4898 131.067 32.3662 128.117 32.3662C125.166 32.3662 122.216 33.4891 119.969 35.7355C115.476 40.2284 115.476 47.5382 119.969 52.0308C124.462 56.5237 131.772 56.5237 136.265 52.0308C140.757 47.5382 140.757 40.2284 136.265 35.7355Z" fill="#333363"/>
</g>
<g filter="url(#filter2_i_12_1735)">
<path d="M140.055 31.9451C136.867 28.7563 132.627 27 128.117 27C123.608 27 119.368 28.7563 116.179 31.9451C112.99 35.1339 111.234 39.3734 111.234 43.8832C111.234 48.3928 112.99 52.6323 116.179 55.8211C119.368 59.0099 123.608 60.7662 128.117 60.7662C132.627 60.7662 136.867 59.0102 140.055 55.8211C143.244 52.6323 145 48.3928 145 43.8832C145 39.3737 143.244 35.1339 140.055 31.9451ZM137.214 52.9805C134.706 55.4885 131.411 56.7427 128.117 56.7427C124.822 56.7427 121.528 55.4885 119.02 52.9805C114.003 47.9641 114.003 39.8021 119.02 34.7859C124.036 29.7698 132.198 29.7695 137.214 34.7859C142.231 39.8021 142.231 47.9641 137.214 52.9805Z" fill="#333363"/>
</g>
<g filter="url(#filter3_i_12_1735)">
<path d="M112.62 54.9321L105.912 61.6051C105.324 62.1935 105 62.9756 105 63.8076C105 64.6395 105.324 65.4213 105.912 66.0097C106.501 66.5978 107.282 66.9219 108.114 66.9219C108.946 66.9219 109.728 66.5978 110.314 66.0118L117.025 59.3352C116.172 58.749 115.365 58.0806 114.616 57.3323C113.871 56.5868 113.204 55.783 112.62 54.9321Z" fill="#333363"/>
</g>
<defs>
<filter id="filter0_dddddd_12_1735" x="0" y="0.703704" width="250" height="271.296" filterUnits="userSpaceOnUse" color-interpolation-filters="sRGB">
<feFlood flood-opacity="0" result="BackgroundImageFix"/>
<feColorMatrix in="SourceAlpha" type="matrix" values="0 0 0 0 0 0 0 0 0 0 0 0 0 0 0 0 0 0 127 0" result="hardAlpha"/>
<feOffset dy="1.85185"/>
<feGaussianBlur stdDeviation="1.57407"/>
<feColorMatrix type="matrix" values="0 0 0 0 0 0 0 0 0 0 0 0 0 0 0 0 0 0 0.0601852 0"/>
<feBlend mode="normal" in2="BackgroundImageFix" result="effect1_dropShadow_12_1735"/>
<feColorMatrix in="SourceAlpha" type="matrix" values="0 0 0 0 0 0 0 0 0 0 0 0 0 0 0 0 0 0 127 0" result="hardAlpha"/>
<feOffset dy="8.14815"/>
<feGaussianBlur stdDeviation="3.25926"/>
<feColorMatrix type="matrix" values="0 0 0 0 0 0 0 0 0 0 0 0 0 0 0 0 0 0 0.0981481 0"/>
<feBlend mode="normal" in2="effect1_dropShadow_12_1735" result="effect2_dropShadow_12_1735"/>
<feColorMatrix in="SourceAlpha" type="matrix" values="0 0 0 0 0 0 0 0 0 0 0 0 0 0 0 0 0 0 127 0" result="hardAlpha"/>
<feOffset dy="20"/>
<feGaussianBlur stdDeviation="6.5"/>
<feColorMatrix type="matrix" values="0 0 0 0 0 0 0 0 0 0 0 0 0 0 0 0 0 0 0.125 0"/>
<feBlend mode="normal" in2="effect2_dropShadow_12_1735" result="effect3_dropShadow_12_1735"/>
<feColorMatrix in="SourceAlpha" type="matrix" values="0 0 0 0 0 0 0 0 0 0 0 0 0 0 0 0 0 0 127 0" result="hardAlpha"/>
<feOffset dy="38.5185"/>
<feGaussianBlur stdDeviation="12.7407"/>
<feColorMatrix type="matrix" values="0 0 0 0 0 0 0 0 0 0 0 0 0 0 0 0 0 0 0.151852 0"/>
<feBlend mode="normal" in2="effect3_dropShadow_12_1735" result="effect4_dropShadow_12_1735"/>
<feColorMatrix in="SourceAlpha" type="matrix" values="0 0 0 0 0 0 0 0 0 0 0 0 0 0 0 0 0 0 127 0" result="hardAlpha"/>
<feOffset dy="64.8148"/>
<feGaussianBlur stdDeviation="23.4259"/>
<feColorMatrix type="matrix" values="0 0 0 0 0 0 0 0 0 0 0 0 0 0 0 0 0 0 0.189815 0"/>
<feBlend mode="normal" in2="effect4_dropShadow_12_1735" result="effect5_dropShadow_12_1735"/>
<feColorMatrix in="SourceAlpha" type="matrix" values="0 0 0 0 0 0 0 0 0 0 0 0 0 0 0 0 0 0 127 0" result="hardAlpha"/>
<feOffset dy="100"/>
<feGaussianBlur stdDeviation="40"/>
<feColorMatrix type="matrix" values="0 0 0 0 0 0 0 0 0 0 0 0 0 0 0 0 0 0 0.25 0"/>
<feBlend mode="normal" in2="effect5_dropShadow_12_1735" result="effect6_dropShadow_12_1735"/>
<feBlend mode="normal" in="SourceGraphic" in2="effect6_dropShadow_12_1735" result="shape"/>
</filter>
<filter id="filter1_i_12_1735" x="116.6" y="32.3662" width="26.0344" height="23.0342" filterUnits="userSpaceOnUse" color-interpolation-filters="sRGB">
<feFlood flood-opacity="0" result="BackgroundImageFix"/>
<feBlend mode="normal" in="SourceGraphic" in2="BackgroundImageFix" result="shape"/>
<feColorMatrix in="SourceAlpha" type="matrix" values="0 0 0 0 0 0 0 0 0 0 0 0 0 0 0 0 0 0 127 0" result="hardAlpha"/>
<feOffset dx="3"/>
<feGaussianBlur stdDeviation="2.5"/>
<feComposite in2="hardAlpha" operator="arithmetic" k2="-1" k3="1"/>
<feColorMatrix type="matrix" values="0 0 0 0 0 0 0 0 0 0 0 0 0 0 0 0 0 0 0.5 0"/>
<feBlend mode="normal" in2="shape" result="effect1_innerShadow_12_1735"/>
</filter>
<filter id="filter2_i_12_1735" x="111.234" y="27" width="36.7661" height="33.7661" filterUnits="userSpaceOnUse" color-interpolation-filters="sRGB">
<feFlood flood-opacity="0" result="BackgroundImageFix"/>
<feBlend mode="normal" in="SourceGraphic" in2="BackgroundImageFix" result="shape"/>
<feColorMatrix in="SourceAlpha" type="matrix" values="0 0 0 0 0 0 0 0 0 0 0 0 0 0 0 0 0 0 127 0" result="hardAlpha"/>
<feOffset dx="3"/>
<feGaussianBlur stdDeviation="2.5"/>
<feComposite in2="hardAlpha" operator="arithmetic" k2="-1" k3="1"/>
<feColorMatrix type="matrix" values="0 0 0 0 0 0 0 0 0 0 0 0 0 0 0 0 0 0 0.5 0"/>
<feBlend mode="normal" in2="shape" result="effect1_innerShadow_12_1735"/>
</filter>
<filter id="filter3_i_12_1735" x="105" y="54.9321" width="15.0254" height="11.9897" filterUnits="userSpaceOnUse" color-interpolation-filters="sRGB">
<feFlood flood-opacity="0" result="BackgroundImageFix"/>
<feBlend mode="normal" in="SourceGraphic" in2="BackgroundImageFix" result="shape"/>
<feColorMatrix in="SourceAlpha" type="matrix" values="0 0 0 0 0 0 0 0 0 0 0 0 0 0 0 0 0 0 127 0" result="hardAlpha"/>
<feOffset dx="3"/>
<feGaussianBlur stdDeviation="2.5"/>
<feComposite in2="hardAlpha" operator="arithmetic" k2="-1" k3="1"/>
<feColorMatrix type="matrix" values="0 0 0 0 0 0 0 0 0 0 0 0 0 0 0 0 0 0 0.5 0"/>
<feBlend mode="normal" in2="shape" result="effect1_innerShadow_12_1735"/>
</filter>
<linearGradient id="paint0_linear_12_1735" x1="125" y1="2" x2="125" y2="92" gradientUnits="userSpaceOnUse">
<stop stop-color="#6D6D8A"/>
<stop offset="1" stop-color="#37374A"/>
</linearGradient>
</defs>
</svg>
