<svg width="373" height="388" viewBox="0 0 373 388" fill="none" xmlns="http://www.w3.org/2000/svg">
<path fill-rule="evenodd" clip-rule="evenodd" d="M126.616 366.641C172.682 356.979 212.691 335.82 252.497 310.698C295.418 283.609 348.231 262.731 366.377 215.325C384.775 167.261 360.508 115.489 346.135 66.0711C331.246 14.8771 323.917 -43.5239 281.646 -76.0072C239.026 -108.759 180.322 -104.739 126.616 -102.62C74.9348 -100.58 23.0369 -93.1414 -19.7729 -64.1118C-63.534 -34.4372 -96.071 9.44135 -112.676 59.6454C-129.342 110.037 -123.361 163.115 -112.081 214.979C-99.6 272.361 -94.0808 341.51 -44.5214 372.999C4.87173 404.382 69.3448 378.654 126.616 366.641Z" fill="#343549"/>
</svg>
